<mxfile host="app.diagrams.net" agent="Mozilla/5.0 (Windows NT 10.0; Win64; x64) AppleWebKit/537.36 (KHTML, like Gecko) Chrome/141.0.0.0 Safari/537.36" version="28.2.7">
  <diagram name="第 1 页" id="EMZmoEa7o1LF5CxlmpMa">
    <mxGraphModel dx="1042" dy="527" grid="1" gridSize="10" guides="1" tooltips="1" connect="1" arrows="1" fold="1" page="1" pageScale="1" pageWidth="827" pageHeight="1169" math="0" shadow="0">
      <root>
        <mxCell id="0" />
        <mxCell id="1" parent="0" />
        <mxCell id="cjz6W6rn2w06RCAWxmLH-3" value="" style="edgeStyle=orthogonalEdgeStyle;rounded=0;orthogonalLoop=1;jettySize=auto;html=1;" edge="1" parent="1" source="cjz6W6rn2w06RCAWxmLH-1" target="cjz6W6rn2w06RCAWxmLH-2">
          <mxGeometry relative="1" as="geometry" />
        </mxCell>
        <mxCell id="cjz6W6rn2w06RCAWxmLH-1" value="大家都知道区块链市场的机会很多，暴涨暴跌，因此借钱去炒币的人就特别多，所以在区块链上“借”的需求特别旺盛" style="rounded=1;whiteSpace=wrap;html=1;" vertex="1" parent="1">
          <mxGeometry x="90" y="280" width="120" height="60" as="geometry" />
        </mxCell>
        <mxCell id="cjz6W6rn2w06RCAWxmLH-2" value="稳定币的年化收益率一直处在一个较高的位置" style="rounded=1;whiteSpace=wrap;html=1;" vertex="1" parent="1">
          <mxGeometry x="280" y="280" width="120" height="60" as="geometry" />
        </mxCell>
        <mxCell id="cjz6W6rn2w06RCAWxmLH-6" value="" style="edgeStyle=orthogonalEdgeStyle;rounded=0;orthogonalLoop=1;jettySize=auto;html=1;" edge="1" parent="1" source="cjz6W6rn2w06RCAWxmLH-4" target="cjz6W6rn2w06RCAWxmLH-5">
          <mxGeometry relative="1" as="geometry" />
        </mxCell>
        <mxCell id="cjz6W6rn2w06RCAWxmLH-4" value="区块链" style="rounded=1;whiteSpace=wrap;html=1;" vertex="1" parent="1">
          <mxGeometry x="100" y="80" width="120" height="60" as="geometry" />
        </mxCell>
        <mxCell id="cjz6W6rn2w06RCAWxmLH-5" value="透明" style="rounded=1;whiteSpace=wrap;html=1;" vertex="1" parent="1">
          <mxGeometry x="270" y="80" width="120" height="60" as="geometry" />
        </mxCell>
        <mxCell id="cjz6W6rn2w06RCAWxmLH-9" value="" style="edgeStyle=orthogonalEdgeStyle;rounded=0;orthogonalLoop=1;jettySize=auto;html=1;" edge="1" parent="1" source="cjz6W6rn2w06RCAWxmLH-7" target="cjz6W6rn2w06RCAWxmLH-8">
          <mxGeometry relative="1" as="geometry" />
        </mxCell>
        <mxCell id="cjz6W6rn2w06RCAWxmLH-7" value="平台很多，竞争激烈" style="rounded=1;whiteSpace=wrap;html=1;" vertex="1" parent="1">
          <mxGeometry x="270" y="160" width="120" height="60" as="geometry" />
        </mxCell>
        <mxCell id="cjz6W6rn2w06RCAWxmLH-8" value="撮合费下降" style="rounded=1;whiteSpace=wrap;html=1;" vertex="1" parent="1">
          <mxGeometry x="440" y="160" width="120" height="60" as="geometry" />
        </mxCell>
      </root>
    </mxGraphModel>
  </diagram>
</mxfile>
